# Blender v2.81 (sub 16) OBJ File: ''
# www.blender.org
mtllib hcp-small-fraction.mtl
o sphere.001
v -0.382683 0.923880 0.000000
v -0.195090 0.980785 0.000000
v -0.191342 0.980785 -0.038060
v -0.375330 0.923880 -0.074658
v -0.555570 0.831470 0.000000
v -0.544895 0.831470 -0.108386
v -0.707107 0.707107 0.000000
v -0.693520 0.707107 -0.137950
v -0.831470 0.555570 0.000000
v -0.815493 0.555570 -0.162212
v 0.000000 1.000000 0.000000
v -0.180240 0.980785 -0.074658
v -0.353553 0.923880 -0.146447
v -0.513280 0.831470 -0.212608
v -0.653281 0.707107 -0.270598
v -0.768178 0.555570 -0.318190
v -0.461940 0.831470 -0.308658
v -0.587938 0.707107 -0.392848
v -0.691342 0.555570 -0.461940
v -0.162212 0.980785 -0.108387
v -0.318190 0.923880 -0.212608
v -0.137950 0.980785 -0.137950
v -0.270598 0.923880 -0.270598
v -0.392847 0.831470 -0.392848
v -0.500000 0.707107 -0.500000
v -0.587938 0.555570 -0.587938
v -0.392847 0.707107 -0.587938
v -0.461940 0.555570 -0.691342
v -0.108386 0.980785 -0.162212
v -0.212607 0.923880 -0.318190
v -0.308658 0.831470 -0.461940
v -0.074658 0.980785 -0.180240
v -0.146446 0.923880 -0.353554
v -0.212607 0.831470 -0.513280
v -0.270598 0.707107 -0.653282
v -0.318189 0.555570 -0.768178
v -0.162211 0.555570 -0.815493
v -0.038060 0.980785 -0.191342
v -0.074658 0.923880 -0.375331
v -0.108386 0.831470 -0.544895
v -0.137949 0.707107 -0.693520
v 0.000000 0.980785 -0.195091
v 0.000000 0.923880 -0.382684
v 0.000000 0.831470 -0.555570
v 0.000000 0.707107 -0.707107
v 0.000000 0.555570 -0.831470
v 0.162212 0.555570 -0.815493
v 0.038061 0.980785 -0.191342
v 0.074658 0.923880 -0.375331
v 0.108387 0.831470 -0.544895
v 0.137950 0.707107 -0.693520
v 0.146447 0.923880 -0.353554
v 0.212608 0.831470 -0.513280
v 0.270598 0.707107 -0.653282
v 0.318190 0.555570 -0.768178
v 0.074658 0.980785 -0.180240
v 0.108387 0.980785 -0.162212
v 0.212608 0.923880 -0.318190
v 0.308659 0.831470 -0.461940
v 0.392848 0.707107 -0.587938
v 0.461940 0.555570 -0.691342
v 0.270599 0.923880 -0.270598
v 0.392848 0.831470 -0.392848
v 0.500000 0.707107 -0.500000
v 0.587938 0.555570 -0.587938
v 0.137950 0.980785 -0.137950
v 0.162212 0.980785 -0.108386
v 0.318190 0.923880 -0.212608
v 0.461940 0.831470 -0.308658
v 0.587938 0.707107 -0.392848
v 0.691342 0.555570 -0.461940
v 0.513280 0.831470 -0.212608
v 0.653282 0.707107 -0.270598
v 0.768178 0.555570 -0.318190
v 0.180240 0.980785 -0.074658
v 0.353554 0.923880 -0.146447
v 0.191342 0.980785 -0.038060
v 0.375331 0.923880 -0.074658
v 0.544896 0.831470 -0.108386
v 0.693520 0.707107 -0.137950
v 0.815493 0.555570 -0.162212
v 0.707107 0.707107 0.000000
v 0.831470 0.555570 0.000000
v 0.195091 0.980785 0.000000
v 0.382684 0.923880 0.000000
v 0.555571 0.831470 0.000000
v 0.191342 0.980785 0.038060
v 0.375331 0.923880 0.074658
v 0.544896 0.831470 0.108386
v 0.693520 0.707107 0.137950
v 0.815493 0.555570 0.162212
v 0.653282 0.707107 0.270598
v 0.768178 0.555570 0.318190
v 0.180240 0.980785 0.074658
v 0.353554 0.923880 0.146447
v 0.513280 0.831470 0.212608
v 0.162212 0.980785 0.108386
v 0.318190 0.923880 0.212608
v 0.461940 0.831470 0.308658
v 0.587938 0.707107 0.392847
v 0.691342 0.555570 0.461940
v 0.587938 0.555570 0.587938
v 0.137950 0.980785 0.137950
v 0.270598 0.923880 0.270598
v 0.392848 0.831470 0.392848
v 0.500000 0.707107 0.500000
v 0.108387 0.980785 0.162212
v 0.212608 0.923880 0.318190
v 0.308659 0.831470 0.461940
v 0.392848 0.707107 0.587938
v 0.461940 0.555570 0.691342
v 0.318190 0.555570 0.768177
v 0.074658 0.980785 0.180240
v 0.146447 0.923880 0.353553
v 0.212608 0.831470 0.513280
v 0.270598 0.707107 0.653281
v 0.074658 0.923880 0.375330
v 0.108387 0.831470 0.544895
v 0.137950 0.707107 0.693520
v 0.162212 0.555570 0.815493
v 0.038061 0.980785 0.191342
v 0.000000 0.980785 0.195090
v 0.000000 0.923880 0.382683
v 0.000000 0.831470 0.555570
v 0.000000 0.707107 0.707107
v 0.000000 0.555570 0.831469
v -0.108386 0.831470 0.544895
v -0.137949 0.707107 0.693520
v -0.162211 0.555570 0.815493
v -0.038060 0.980785 0.191342
v -0.074658 0.923880 0.375330
v -0.074658 0.980785 0.180240
v -0.146446 0.923880 0.353553
v -0.212607 0.831470 0.513280
v -0.270598 0.707107 0.653281
v -0.318189 0.555570 0.768177
v -0.308658 0.831470 0.461940
v -0.392847 0.707107 0.587938
v -0.461939 0.555570 0.691341
v -0.108386 0.980785 0.162212
v -0.212607 0.923880 0.318190
v -0.137949 0.980785 0.137950
v -0.270598 0.923880 0.270598
v -0.392847 0.831470 0.392847
v -0.500000 0.707107 0.500000
v -0.587937 0.555570 0.587937
v -0.587937 0.707107 0.392847
v -0.691341 0.555570 0.461939
v -0.162211 0.980785 0.108386
v -0.318189 0.923880 0.212607
v -0.461939 0.831470 0.308658
v -0.180240 0.980785 0.074658
v -0.353553 0.923880 0.146447
v -0.513280 0.831470 0.212607
v -0.653281 0.707107 0.270598
v -0.768177 0.555570 0.318189
v -0.693520 0.707107 0.137950
v -0.815492 0.555570 0.162211
v -0.191342 0.980785 0.038060
v -0.375330 0.923880 0.074658
v -0.544895 0.831470 0.108386
vn -0.2902 0.9566 -0.0286
vn -0.4709 0.8810 -0.0464
vn -0.6332 0.7715 -0.0624
vn -0.7708 0.6326 -0.0759
vn -0.0980 0.9951 -0.0096
vn -0.0942 0.9951 -0.0286
vn -0.2790 0.9566 -0.0846
vn -0.4528 0.8810 -0.1374
vn -0.6088 0.7715 -0.1847
vn -0.7412 0.6326 -0.2248
vn -0.5611 0.7715 -0.2999
vn -0.6831 0.6326 -0.3651
vn -0.0869 0.9951 -0.0464
vn -0.2571 0.9566 -0.1374
vn -0.4173 0.8810 -0.2230
vn -0.0761 0.9951 -0.0625
vn -0.2254 0.9566 -0.1850
vn -0.3658 0.8810 -0.3002
vn -0.4918 0.7715 -0.4036
vn -0.5987 0.6326 -0.4913
vn -0.4913 0.6326 -0.5987
vn -0.0625 0.9951 -0.0761
vn -0.1850 0.9566 -0.2254
vn -0.3002 0.8810 -0.3658
vn -0.4036 0.7715 -0.4918
vn -0.1374 0.9566 -0.2571
vn -0.2231 0.8810 -0.4173
vn -0.2230 0.8810 -0.4173
vn -0.2999 0.7715 -0.5611
vn -0.3651 0.6326 -0.6831
vn -0.0464 0.9951 -0.0869
vn -0.0286 0.9951 -0.0942
vn -0.0846 0.9566 -0.2790
vn -0.1374 0.8810 -0.4528
vn -0.1847 0.7715 -0.6088
vn -0.2248 0.6326 -0.7412
vn -0.0286 0.9566 -0.2902
vn -0.0464 0.8810 -0.4709
vn -0.0624 0.7715 -0.6332
vn -0.0759 0.6326 -0.7708
vn -0.0097 0.9951 -0.0980
vn 0.0097 0.9951 -0.0980
vn 0.0286 0.9566 -0.2902
vn 0.0464 0.8810 -0.4709
vn 0.0624 0.7715 -0.6332
vn 0.0759 0.6326 -0.7708
vn 0.1374 0.8810 -0.4528
vn 0.1847 0.7715 -0.6088
vn 0.2248 0.6326 -0.7412
vn 0.0286 0.9951 -0.0942
vn 0.0846 0.9566 -0.2790
vn 0.0464 0.9951 -0.0869
vn 0.1374 0.9566 -0.2571
vn 0.2230 0.8810 -0.4173
vn 0.2231 0.8810 -0.4173
vn 0.2999 0.7715 -0.5611
vn 0.3651 0.6326 -0.6831
vn 0.3002 0.8810 -0.3658
vn 0.4036 0.7715 -0.4918
vn 0.4913 0.6326 -0.5987
vn 0.0625 0.9951 -0.0761
vn 0.1850 0.9566 -0.2254
vn 0.0761 0.9951 -0.0625
vn 0.2254 0.9566 -0.1850
vn 0.3658 0.8810 -0.3002
vn 0.4918 0.7715 -0.4036
vn 0.5987 0.6326 -0.4913
vn 0.5611 0.7715 -0.2999
vn 0.6831 0.6326 -0.3651
vn 0.0869 0.9951 -0.0464
vn 0.2571 0.9566 -0.1374
vn 0.4173 0.8810 -0.2231
vn 0.0942 0.9951 -0.0286
vn 0.2790 0.9566 -0.0846
vn 0.4528 0.8810 -0.1374
vn 0.6088 0.7715 -0.1847
vn 0.7412 0.6326 -0.2248
vn 0.7708 0.6326 -0.0759
vn 0.0980 0.9951 -0.0096
vn 0.2902 0.9566 -0.0286
vn 0.4709 0.8810 -0.0464
vn 0.6332 0.7715 -0.0624
vn 0.0980 0.9951 0.0096
vn 0.2902 0.9566 0.0286
vn 0.4709 0.8810 0.0464
vn 0.6332 0.7715 0.0624
vn 0.7708 0.6326 0.0759
vn 0.7412 0.6326 0.2248
vn 0.0942 0.9951 0.0286
vn 0.2790 0.9566 0.0846
vn 0.4528 0.8810 0.1374
vn 0.6088 0.7715 0.1847
vn 0.2571 0.9566 0.1374
vn 0.4173 0.8810 0.2231
vn 0.5611 0.7715 0.2999
vn 0.6831 0.6326 0.3651
vn 0.0869 0.9951 0.0464
vn 0.0761 0.9951 0.0625
vn 0.2254 0.9566 0.1850
vn 0.3658 0.8810 0.3002
vn 0.4918 0.7715 0.4036
vn 0.5987 0.6326 0.4913
vn 0.1850 0.9566 0.2254
vn 0.3002 0.8810 0.3658
vn 0.4036 0.7715 0.4918
vn 0.4913 0.6326 0.5987
vn 0.0625 0.9951 0.0761
vn 0.0464 0.9951 0.0869
vn 0.1374 0.9566 0.2571
vn 0.2230 0.8810 0.4173
vn 0.2999 0.7715 0.5611
vn 0.3651 0.6326 0.6831
vn 0.1374 0.8810 0.4528
vn 0.1847 0.7715 0.6088
vn 0.2248 0.6326 0.7412
vn 0.0286 0.9951 0.0942
vn 0.0846 0.9566 0.2790
vn 0.0097 0.9951 0.0980
vn 0.0286 0.9566 0.2902
vn 0.0464 0.8810 0.4709
vn 0.0624 0.7715 0.6332
vn 0.0759 0.6326 0.7708
vn -0.0624 0.7715 0.6332
vn -0.0759 0.6326 0.7708
vn -0.0097 0.9951 0.0980
vn -0.0286 0.9566 0.2902
vn -0.0464 0.8810 0.4709
vn -0.0286 0.9951 0.0942
vn -0.0846 0.9566 0.2790
vn -0.1374 0.8810 0.4528
vn -0.1847 0.7715 0.6088
vn -0.2248 0.6326 0.7412
vn -0.2999 0.7715 0.5611
vn -0.3651 0.6326 0.6831
vn -0.0464 0.9951 0.0869
vn -0.1374 0.9566 0.2571
vn -0.2230 0.8810 0.4173
vn -0.0625 0.9951 0.0761
vn -0.1850 0.9565 0.2254
vn -0.1850 0.9566 0.2254
vn -0.3002 0.8810 0.3658
vn -0.4036 0.7715 0.4918
vn -0.4913 0.6326 0.5987
vn -0.5987 0.6326 0.4913
vn -0.0761 0.9951 0.0625
vn -0.2254 0.9566 0.1850
vn -0.3658 0.8810 0.3002
vn -0.4918 0.7715 0.4036
vn -0.0869 0.9951 0.0464
vn -0.2571 0.9566 0.1374
vn -0.4173 0.8810 0.2231
vn -0.5611 0.7715 0.2999
vn -0.6831 0.6326 0.3651
vn -0.7412 0.6326 0.2248
vn -0.0942 0.9951 0.0286
vn -0.2790 0.9566 0.0846
vn -0.4528 0.8810 0.1374
vn -0.6088 0.7715 0.1847
vn -0.2902 0.9566 0.0286
vn -0.4709 0.8810 0.0464
vn -0.6332 0.7715 0.0624
vn -0.7708 0.6326 0.0759
vn -0.0980 0.9951 0.0096
vn 0.0000 -1.0000 -0.0000
usemtl None
s 1
f 1//1 3//1 4//1
f 1//2 6//2 5//2
f 7//3 6//3 8//3
f 7//4 10//4 9//4
f 2//5 11//5 3//5
f 3//6 11//6 12//6
f 4//7 12//7 13//7
f 4//8 14//8 6//8
f 6//9 15//9 8//9
f 10//10 15//10 16//10
f 15//11 17//11 18//11
f 16//12 18//12 19//12
f 12//13 11//13 20//13
f 13//14 20//14 21//14
f 14//15 21//15 17//15
f 20//16 11//16 22//16
f 20//17 23//17 21//17
f 21//18 24//18 17//18
f 17//19 25//19 18//19
f 18//20 26//20 19//20
f 25//21 28//21 26//21
f 22//22 11//22 29//22
f 22//23 30//23 23//23
f 24//24 30//24 31//24
f 24//25 27//25 25//25
f 30//26 32//26 33//26
f 30//27 34//28 31//28
f 27//29 34//29 35//29
f 27//30 36//30 28//30
f 29//31 11//31 32//31
f 32//32 11//32 38//32
f 33//33 38//33 39//33
f 34//34 39//34 40//34
f 34//35 41//35 35//35
f 35//36 37//36 36//36
f 39//37 42//37 43//37
f 39//38 44//38 40//38
f 41//39 44//39 45//39
f 37//40 45//40 46//40
f 38//41 11//41 42//41
f 42//42 11//42 48//42
f 42//43 49//43 43//43
f 44//44 49//44 50//44
f 44//45 51//45 45//45
f 45//46 47//46 46//46
f 50//47 52//47 53//47
f 50//48 54//48 51//48
f 47//49 54//49 55//49
f 48//50 11//50 56//50
f 48//51 52//51 49//51
f 56//52 11//52 57//52
f 52//53 57//53 58//53
f 53//54 58//55 59//54
f 53//56 60//56 54//56
f 55//57 60//57 61//57
f 58//58 63//58 59//58
f 59//59 64//59 60//59
f 60//60 65//60 61//60
f 57//61 11//61 66//61
f 57//62 62//62 58//62
f 66//63 11//63 67//63
f 66//64 68//64 62//64
f 62//65 69//65 63//65
f 63//66 70//66 64//66
f 65//67 70//67 71//67
f 70//68 72//68 73//68
f 70//69 74//69 71//69
f 67//70 11//70 75//70
f 67//71 76//71 68//71
f 69//72 76//72 72//72
f 75//73 11//73 77//73
f 76//74 77//74 78//74
f 72//75 78//75 79//75
f 73//76 79//76 80//76
f 73//77 81//77 74//77
f 81//78 82//78 83//78
f 77//79 11//79 84//79
f 78//80 84//80 85//80
f 79//81 85//81 86//81
f 79//82 82//82 80//82
f 84//83 11//83 87//83
f 84//84 88//84 85//84
f 85//85 89//85 86//85
f 82//86 89//86 90//86
f 82//87 91//87 83//87
f 91//88 92//88 93//88
f 87//89 11//89 94//89
f 87//90 95//90 88//90
f 88//91 96//91 89//91
f 89//92 92//92 90//92
f 95//93 97//93 98//93
f 95//94 99//94 96//94
f 96//95 100//95 92//95
f 93//96 100//96 101//96
f 94//97 11//97 97//97
f 97//98 11//98 103//98
f 97//99 104//99 98//99
f 98//100 105//100 99//100
f 100//101 105//101 106//101
f 101//102 106//102 102//102
f 104//103 107//103 108//103
f 105//104 108//104 109//104
f 106//105 109//105 110//105
f 102//106 110//106 111//106
f 103//107 11//107 107//107
f 107//108 11//108 113//108
f 107//109 114//109 108//109
f 108//110 115//110 109//110
f 109//111 116//111 110//111
f 110//112 112//112 111//112
f 114//113 118//113 115//113
f 116//114 118//114 119//114
f 112//115 119//115 120//115
f 113//116 11//116 121//116
f 114//117 121//117 117//117
f 121//118 11//118 122//118
f 121//119 123//119 117//119
f 117//120 124//120 118//120
f 119//121 124//121 125//121
f 119//122 126//122 120//122
f 124//123 128//123 125//123
f 126//124 128//124 129//124
f 122//125 11//125 130//125
f 123//126 130//126 131//126
f 123//127 127//127 124//127
f 130//128 11//128 132//128
f 130//129 133//129 131//129
f 131//130 134//130 127//130
f 127//131 135//131 128//131
f 128//132 136//132 129//132
f 135//133 137//133 138//133
f 136//134 138//134 139//134
f 132//135 11//135 140//135
f 133//136 140//136 141//136
f 134//137 141//137 137//137
f 140//138 11//138 142//138
f 140//139 143//140 141//140
f 141//141 144//141 137//141
f 137//142 145//142 138//142
f 139//143 145//143 146//143
f 145//144 148//144 146//144
f 142//145 11//145 149//145
f 142//146 150//146 143//146
f 143//147 151//147 144//147
f 144//148 147//148 145//148
f 149//149 11//149 152//149
f 150//150 152//150 153//150
f 151//151 153//151 154//151
f 147//152 154//152 155//152
f 148//153 155//153 156//153
f 156//154 157//154 158//154
f 152//155 11//155 159//155
f 152//156 160//156 153//156
f 154//157 160//157 161//157
f 154//158 157//158 155//158
f 159//159 1//159 160//159
f 161//160 1//160 5//160
f 161//161 7//161 157//161
f 158//162 7//162 9//162
f 159//163 11//163 2//163
f 158//164 37//164 81//164
f 1//1 2//1 3//1
f 1//2 4//2 6//2
f 7//3 5//3 6//3
f 7//4 8//4 10//4
f 4//7 3//7 12//7
f 4//8 13//8 14//8
f 6//9 14//9 15//9
f 10//10 8//10 15//10
f 15//11 14//11 17//11
f 16//12 15//12 18//12
f 13//14 12//14 20//14
f 14//15 13//15 21//15
f 20//17 22//17 23//17
f 21//18 23//18 24//18
f 17//19 24//19 25//19
f 18//20 25//20 26//20
f 25//21 27//21 28//21
f 22//23 29//23 30//23
f 24//24 23//24 30//24
f 24//25 31//25 27//25
f 30//26 29//26 32//26
f 30//27 33//27 34//28
f 27//29 31//29 34//29
f 27//30 35//30 36//30
f 33//33 32//33 38//33
f 34//34 33//34 39//34
f 34//35 40//35 41//35
f 35//36 41//36 37//36
f 39//37 38//37 42//37
f 39//38 43//38 44//38
f 41//39 40//39 44//39
f 37//40 41//40 45//40
f 42//43 48//43 49//43
f 44//44 43//44 49//44
f 44//45 50//45 51//45
f 45//46 51//46 47//46
f 50//47 49//47 52//47
f 50//48 53//48 54//48
f 47//49 51//49 54//49
f 48//51 56//51 52//51
f 52//53 56//53 57//53
f 53//54 52//55 58//55
f 53//56 59//56 60//56
f 55//57 54//57 60//57
f 58//58 62//58 63//58
f 59//59 63//59 64//59
f 60//60 64//60 65//60
f 57//62 66//62 62//62
f 66//64 67//64 68//64
f 62//65 68//65 69//65
f 63//66 69//66 70//66
f 65//67 64//67 70//67
f 70//68 69//68 72//68
f 70//69 73//69 74//69
f 67//71 75//71 76//71
f 69//72 68//72 76//72
f 76//74 75//74 77//74
f 72//75 76//75 78//75
f 73//76 72//76 79//76
f 73//77 80//77 81//77
f 81//78 80//78 82//78
f 78//80 77//80 84//80
f 79//81 78//81 85//81
f 79//82 86//82 82//82
f 84//84 87//84 88//84
f 85//85 88//85 89//85
f 82//86 86//86 89//86
f 82//87 90//87 91//87
f 91//88 90//88 92//88
f 87//90 94//90 95//90
f 88//91 95//91 96//91
f 89//92 96//92 92//92
f 95//93 94//93 97//93
f 95//94 98//94 99//94
f 96//95 99//95 100//95
f 93//96 92//96 100//96
f 97//99 103//99 104//99
f 98//100 104//100 105//100
f 100//101 99//101 105//101
f 101//102 100//102 106//102
f 104//103 103//103 107//103
f 105//104 104//104 108//104
f 106//105 105//105 109//105
f 102//106 106//106 110//106
f 107//109 113//109 114//109
f 108//110 114//110 115//110
f 109//111 115//111 116//111
f 110//112 116//112 112//112
f 114//113 117//113 118//113
f 116//114 115//114 118//114
f 112//115 116//115 119//115
f 114//117 113//117 121//117
f 121//119 122//119 123//119
f 117//120 123//120 124//120
f 119//121 118//121 124//121
f 119//122 125//122 126//122
f 124//123 127//123 128//123
f 126//124 125//124 128//124
f 123//126 122//126 130//126
f 123//127 131//127 127//127
f 130//129 132//129 133//129
f 131//130 133//130 134//130
f 127//131 134//131 135//131
f 128//132 135//132 136//132
f 135//133 134//133 137//133
f 136//134 135//134 138//134
f 133//136 132//136 140//136
f 134//137 133//137 141//137
f 140//139 142//139 143//140
f 141//141 143//141 144//141
f 137//142 144//142 145//142
f 139//143 138//143 145//143
f 145//144 147//144 148//144
f 142//146 149//146 150//146
f 143//147 150//147 151//147
f 144//148 151//148 147//148
f 150//150 149//150 152//150
f 151//151 150//151 153//151
f 147//152 151//152 154//152
f 148//153 147//153 155//153
f 156//154 155//154 157//154
f 152//156 159//156 160//156
f 154//157 153//157 160//157
f 154//158 161//158 157//158
f 159//159 2//159 1//159
f 161//160 160//160 1//160
f 161//161 5//161 7//161
f 158//162 157//162 7//162
f 158//164 9//164 10//164
f 10//164 16//164 19//164
f 19//164 26//164 37//164
f 26//164 28//164 37//164
f 28//164 36//164 37//164
f 37//164 46//164 47//164
f 47//164 55//164 61//164
f 61//164 65//164 81//164
f 65//164 71//164 81//164
f 71//164 74//164 81//164
f 81//164 83//164 91//164
f 91//164 93//164 101//164
f 101//164 102//164 111//164
f 111//164 112//164 101//164
f 112//164 120//164 101//164
f 120//164 126//164 139//164
f 126//164 129//164 139//164
f 129//164 136//164 139//164
f 139//164 146//164 158//164
f 146//164 148//164 158//164
f 148//164 156//164 158//164
f 158//164 10//164 19//164
f 37//164 47//164 81//164
f 47//164 61//164 81//164
f 81//164 91//164 120//164
f 91//164 101//164 120//164
f 158//164 19//164 37//164
f 120//164 139//164 81//164
f 139//164 158//164 81//164
